<svg id="Capa_1" enable-background="new 0 0 496.92 496.92" height="512" viewBox="0 0 496.92 496.92" width="512" xmlns="http://www.w3.org/2000/svg"><g><path d="m496.92 264.83-26.72 38.41-30.09 43.26-158.98 133.83h-.3l-28.91-9.69-16.34 9.69h-123.87l213.66-254.69-7.61-98.63 42.79 1.74 109.65 98.7z" fill="#c8effe"/><g><path d="m381.215 387.741c-1.919 0-3.839-.732-5.303-2.197l-20.497-20.497c-4.353-4.353-10.141-6.75-16.297-6.75h-9.143c-10.163 0-19.717-3.958-26.903-11.144l-29.09-29.09c-2.929-2.929-2.929-7.678 0-10.606 2.929-2.929 7.678-2.929 10.606 0l29.09 29.09c4.353 4.353 10.141 6.75 16.297 6.75h9.143c10.163 0 19.717 3.958 26.903 11.144l20.497 20.497c2.929 2.929 2.929 7.678 0 10.606-1.464 1.465-3.383 2.197-5.303 2.197z" fill="#9e9797"/></g><path d="m496.92 264.83-26.72 38.41v-75.79z" fill="#99e6fc"/><path d="m496.92 136.84v83.03l-26.72-18.44-29.67-20.47-58.56-76.03h83.04c17.62 0 31.91 14.29 31.91 31.91z" fill="#faf8f8"/><path d="m496.92 136.84v83.03l-26.72-18.44v-64.59c0-17.62-14.28-31.91-31.91-31.91h26.72c17.62 0 31.91 14.29 31.91 31.91z" fill="#f0eae8"/><path d="m496.92 309.79v138.64c0 17.61-14.29 31.9-31.91 31.9h-138.64l113.74-133.83 30.09-19.44z" fill="#bbec6c"/><path d="m496.92 309.79v138.64c0 17.61-14.29 31.9-31.91 31.9h-26.72c17.63 0 31.91-14.29 31.91-31.9v-121.37z" fill="#a2e62e"/><path d="m325.37 225.64-284.353 254.691h-9.097c-17.63-.001-31.92-14.291-31.92-31.901l.003-100.057 7.24-13.817-7.24-31.436-.003-112.26 3.396-7.126-3.396-14.084v-32.81c0-17.62 14.29-31.91 31.92-31.91l284.14.004z" fill="#6bd9e7"/><path d="m167.24 104.93c-1.7 18.13-16.96 32.31-35.53 32.31-18.56 0-33.82-14.18-35.52-32.31h-50.19c1.58 58.43 55.81 132.79 77.18 159.9 2.17 2.76 5.35 4.14 8.53 4.14h26.72v-28.52c24.7-35 57.78-90.08 59-135.52z" fill="#00c7d1"/><circle cx="131.714" cy="345.557" fill="#00c7d1" r="32.797"/><g><g fill="#b9acac"><path d="m172.095 371.599 108.731 108.732h-45.242l-86.106-86.106z"/><path d="m496.92 264.83v44.96l-26.72 26.72-143.83 143.82h-45.24l189.07-188.82z"/><path d="m496.92 219.87v44.96l-26.72-26.66-108.46-108.22-1.19-1.2 2.585-15.5 18.835-8.32 2.4 2.39z"/></g><path d="m496.92 219.87v44.96l-26.72-26.66v-45.02z" fill="#9e9797"/><path d="m470.2 291.51 26.72-26.68v44.96l-26.72 26.72z" fill="#9e9797"/></g><g><path d="m126.792 452.535c-3.129 3.119-7.219 4.679-11.318 4.679-4.089 0-8.189-1.56-11.308-4.679l-104.163-104.162v-45.253l126.789 126.789c6.249 6.249 6.249 16.377 0 22.626z" fill="#b9acac"/></g><g><path d="m381.969 104.934-42.778 47.567c-4.471 4.471-6.009 11.095-3.966 17.078l17.17 50.295c3.079 9.029.76 19.017-5.979 25.756l-150.146 150.145-22.616 22.626-61.94 61.93h-70.697l251.733-251.734c4.47-4.47 6.009-11.094 3.967-17.077l-17.17-50.306c-3.08-9.019-.76-19.007 5.979-25.746l30.535-30.535h65.908z" fill="#fea3c6"/></g><g><path d="m352.39 219.87c3.08 9.03.76 19.02-5.97 25.76l-150.15 150.14-22.62 22.63-61.94 61.93h-22.59l61.94-61.93 22.62-22.63 150.14-150.14c6.74-6.74 9.06-16.73 5.98-25.76l-17.17-50.29c-2.04-5.98-.5-12.61 3.97-17.08l42.78-47.57h22.59l-42.78 47.57c-4.47 4.47-6.01 11.1-3.97 17.08z" fill="#fe93bb"/></g><path d="m158.432 16.589c-47.36 0-85.752 38.393-85.752 85.752 0 58.797 55.525 134.976 77.216 162.491 4.352 5.521 12.721 5.521 17.073 0 21.691-27.516 77.216-103.695 77.216-162.491-.001-47.359-38.394-85.752-85.753-85.752zm0 120.649c-19.709 0-35.686-15.977-35.686-35.686s15.977-35.686 35.686-35.686 35.686 15.977 35.686 35.686c0 19.708-15.977 35.686-35.686 35.686z" fill="#fd3581"/><g fill="#fe0364"><path d="m145.073 68.46c-4.127-1.668-8.634-2.595-13.359-2.595-19.709 0-35.686 15.977-35.686 35.686s15.977 35.686 35.686 35.686c4.725 0 9.231-.927 13.359-2.595-13.088-5.289-22.328-18.108-22.328-33.092 0-14.983 9.24-27.801 22.328-33.09z"/><path d="m158.432 16.589c-4.545 0-9.005.36-13.359 1.042 41.014 6.417 72.394 41.896 72.394 84.711 0 54.833-48.289 124.781-72.394 156.281 1.743 2.278 3.36 4.355 4.822 6.21 4.352 5.521 12.721 5.521 17.073 0 21.691-27.516 77.215-103.695 77.215-162.491.001-47.36-38.392-85.753-85.751-85.753z"/></g><circle cx="158.432" cy="345.557" fill="#fd3581" r="32.797"/><path d="m158.432 312.76c-4.759 0-9.277 1.022-13.359 2.845 11.453 5.116 19.438 16.598 19.438 29.952s-7.986 24.836-19.438 29.952c4.082 1.823 8.599 2.845 13.359 2.845 18.113 0 32.797-14.684 32.797-32.797s-14.684-32.797-32.797-32.797z" fill="#fe0364"/><g><path d="m38.11 218.36c-1.47 1.46-3.39 2.2-5.31 2.2s-3.84-.74-5.3-2.2l-27.5-27.5v-21.21l38.11 38.1c2.92 2.93 2.92 7.68 0 10.61z" fill="#b9acac"/></g></g></svg>