<svg id="Capa_1" enable-background="new 0 0 511.917 511.917" height="512" viewBox="0 0 511.917 511.917" width="512" xmlns="http://www.w3.org/2000/svg"><g><path d="m165.928 290.322c2.188 0 4.267-.955 5.691-2.615 3.417-3.981 80.273-94.323 87.073-167.774h46.757l-17.732 17.731c-8.696 8.696-11.748 21.835-7.774 33.472l18.998 55.658-82.513 82.513c-2.929 2.929-2.929 7.678 0 10.606 1.464 1.465 3.384 2.197 5.303 2.197s3.839-.732 5.303-2.197l85.817-85.817c2.022-2.022 2.719-5.019 1.795-7.726l-20.507-60.081c-2.139-6.265-.497-13.337 4.185-18.019l30.534-30.533c4.166-3.795 2.137-12.745-5.304-12.804h-64.503c-2.561-49.147-43.35-88.345-93.123-88.345-51.419 0-93.252 41.833-93.252 93.252 0 74.984 83.985 173.701 87.561 177.867 1.425 1.66 3.503 2.615 5.691 2.615zm0-258.735c43.148 0 78.252 35.104 78.252 78.252 0 .849-.015 1.704-.04 2.561 0 .011-.002.021-.002.031 0 .006.001.011.001.017-1.703 58.382-59.6 135.284-78.212 158.543-18.89-23.608-78.252-102.476-78.252-161.153.001-43.147 35.105-78.251 78.253-78.251z"/><path d="m165.928 152.235c23.548.041 43.232-19.557 43.186-43.187 0-23.813-19.373-43.186-43.186-43.186s-43.186 19.373-43.186 43.186c-.275 22.843 19.415 43.409 43.186 43.187zm0-15c-11.686 0-21.732-7.149-25.998-17.303h51.996c-4.266 10.154-14.312 17.303-25.998 17.303zm0-56.372c14.144 0 25.883 10.472 27.882 24.069h-55.765c2-13.597 13.74-24.069 27.883-24.069z"/><path d="m472.502 104.932h-78.247c-1.721.078-3.658.52-5.305 2.198l-54.869 54.87c-2.022 2.022-2.719 5.02-1.794 7.726l20.505 60.068c2.173 6.369.57 13.278-4.184 18.031l-234.699 234.7c-4.197 3.947-2.106 12.714 5.302 12.804h353.291c21.733 0 39.415-17.677 39.415-39.405v-311.588c0-21.727-17.682-39.404-39.415-39.404zm-80.637 20.496 105.051 105.051v24.048l-117.07-117.079zm105.052 18.908v64.93l-89.334-89.334h64.92c13.461 0 24.414 10.948 24.414 24.404zm-137.702 114.096c8.828-8.828 11.807-21.657 7.773-33.482l-18.997-55.648 21.247-21.247 124.271 124.28-104.797 104.798-15.194-15.194c-7.186-7.187-16.741-11.144-26.903-11.144h-9.143c-6.156 0-11.944-2.397-16.297-6.75l-23.787-23.787zm-72.433 72.433 23.787 23.787c7.186 7.186 16.74 11.144 26.903 11.144h9.143c6.156 0 11.944 2.397 16.297 6.75l15.194 15.194-89.633 89.633-74.099-74.1zm-105.636 105.636 43.828 43.828h-87.656zm65.041 43.828-54.435-54.435 12.015-12.015 66.449 66.45zm226.315 0h-120.53l52.862-52.859c2.929-2.929 2.929-7.677 0-10.606-2.929-2.93-7.678-2.929-10.606 0l-63.469 63.465h-24.03l190.188-190.188v24.039l-77.827 77.823c-2.929 2.929-2.929 7.677 0 10.606 1.464 1.465 3.384 2.197 5.303 2.197s3.839-.732 5.303-2.197l67.221-67.216v120.531c0 13.457-10.953 24.405-24.415 24.405z"/><path d="m49.979 495.184c1.318-.347 2.457-.698 3.839-2.053l101.272-101.272c3.451.965 7.083 1.493 10.838 1.493 22.22 0 40.297-18.077 40.297-40.297s-18.077-40.297-40.297-40.297-40.297 18.077-40.297 40.297c0 12.827 6.032 24.265 15.4 31.65l-24.419 24.419-101.612-101.612v-101.649l19.995 19.995c1.464 1.464 3.384 2.197 5.303 2.197s3.839-.732 5.303-2.197c2.929-2.929 2.929-7.678 0-10.606l-30.601-30.602v-40.314c0-13.457 10.952-24.404 24.415-24.404h5.541c4.142 0 7.5-3.358 7.5-7.5s-3.358-7.5-7.5-7.5h-5.541c-21.734 0-39.415 17.677-39.415 39.404v311.588c0 21.728 17.681 39.405 39.415 39.405h9.099c.15-.002.665-.006 1.465-.145zm115.949-167.426c13.949 0 25.297 11.348 25.297 25.297s-11.348 25.297-25.297 25.297-25.297-11.348-25.297-25.297 11.348-25.297 25.297-25.297zm-59.923 91.972-12.02 12.02-78.985-78.985v-24.04zm-91.005 36.194v-81.947l68.379 68.379-37.972 37.972h-5.992c-13.463.001-24.415-10.947-24.415-24.404z"/></g></svg>