<svg id="Layer_1" height="512" viewBox="0 0 150 150" width="512" xmlns="http://www.w3.org/2000/svg" data-name="Layer 1"><path d="m130.431 121.405h-110.862a9.58 9.58 0 0 1 -9.569-9.569v-1.96a1 1 0 0 1 1-1h53a1 1 0 0 1 .958.714l.966 3.238h18.153l.966-3.238a1 1 0 0 1 .958-.714h53a1 1 0 0 1 1 1v1.96a9.58 9.58 0 0 1 -9.57 9.569zm-118.431-10.529v.96a7.578 7.578 0 0 0 7.569 7.569h110.862a7.578 7.578 0 0 0 7.569-7.569v-.96h-51.254l-.966 3.238a1 1 0 0 1 -.958.714h-19.644a1 1 0 0 1 -.958-.714l-.966-3.238z"/><path d="m124.77 104.645h-99.54a1 1 0 0 1 -1-1v-67.451a1 1 0 0 1 1-1h99.54a1 1 0 0 1 1 1v67.451a1 1 0 0 1 -1 1zm-98.54-2h97.54v-65.451h-97.54z"/><path d="m131.37 110.874a1 1 0 0 1 -1-1v-74.05a5.24 5.24 0 0 0 -5.24-5.229h-100.26a5.24 5.24 0 0 0 -5.24 5.229v74.05a1 1 0 0 1 -2 0v-74.05a7.243 7.243 0 0 1 7.24-7.224h100.26a7.243 7.243 0 0 1 7.24 7.229v74.05a1 1 0 0 1 -1 .995z"/><path d="m104.566 78.146a1 1 0 0 1 -1-1v-5.172a2.852 2.852 0 0 0 -2.848-2.849h-51.436a2.852 2.852 0 0 0 -2.848 2.849v5.172a1 1 0 0 1 -2 0v-5.172a4.853 4.853 0 0 1 4.848-4.849h51.436a4.853 4.853 0 0 1 4.848 4.849v5.172a1 1 0 0 1 -1 1z"/><path d="m75 78.146a1 1 0 0 1 -1-1v-18.046a1 1 0 1 1 2 0v18.046a1 1 0 0 1 -1 1z"/><path d="m88.312 60.1h-26.624a1 1 0 0 1 -1-1v-15.97a1 1 0 0 1 1-1h26.624a1 1 0 0 1 1 1v15.97a1 1 0 0 1 -1 1zm-25.624-2h24.624v-13.97h-24.624z"/><path d="m45.434 86.062a4.958 4.958 0 1 1 4.958-4.962 4.964 4.964 0 0 1 -4.958 4.962zm0-7.916a2.958 2.958 0 1 0 2.958 2.954 2.962 2.962 0 0 0 -2.958-2.954z"/><path d="m75 86.062a4.958 4.958 0 1 1 4.959-4.962 4.964 4.964 0 0 1 -4.959 4.962zm0-7.916a2.958 2.958 0 1 0 2.959 2.954 2.962 2.962 0 0 0 -2.959-2.954z"/><path d="m104.566 86.062a4.958 4.958 0 1 1 4.959-4.958 4.964 4.964 0 0 1 -4.959 4.958zm0-7.916a2.958 2.958 0 1 0 2.959 2.958 2.962 2.962 0 0 0 -2.959-2.958z"/><path d="m82.2 49.367h-14.4a1 1 0 0 1 0-2h14.4a1 1 0 0 1 0 2z"/><path d="m82.2 54.867h-14.4a1 1 0 0 1 0-2h14.4a1 1 0 0 1 0 2z"/><path d="m113.5 94.255h-77a1 1 0 0 1 0-2h77a1 1 0 0 1 0 2z"/><path d="m25.005 116.547a1 1 0 0 1 -1-1v-.813a1 1 0 0 1 2 0v.813a1 1 0 0 1 -1 1z"/><path d="m29.974 116.547a1 1 0 0 1 -1-1v-.813a1 1 0 0 1 2 0v.813a1 1 0 0 1 -1 1z"/><path d="m34.942 116.547a1 1 0 0 1 -1-1v-.813a1 1 0 0 1 2 0v.813a1 1 0 0 1 -1 1z"/><path d="m115.058 116.547a1 1 0 0 1 -1-1v-.813a1 1 0 0 1 2 0v.813a1 1 0 0 1 -1 1z"/><path d="m120.026 116.547a1 1 0 0 1 -1-1v-.813a1 1 0 0 1 2 0v.813a1 1 0 0 1 -1 1z"/><path d="m125 116.547a1 1 0 0 1 -1-1v-.813a1 1 0 1 1 2 0v.813a1 1 0 0 1 -1 1z"/></svg>